<svg xmlns="http://www.w3.org/2000/svg" version="1.1" xmlns:xlink="http://www.w3.org/1999/xlink" xmlns:svgjs="http://svgjs.dev/svgjs" width="2000" height="297" viewBox="0 0 2000 297"><g transform="matrix(1,0,0,1,-1.2121212121212466,-1.1511639930524211)"><svg viewBox="0 0 396 59" data-background-color="#ffffff" preserveAspectRatio="xMidYMid meet" height="297" width="2000" xmlns="http://www.w3.org/2000/svg" xmlns:xlink="http://www.w3.org/1999/xlink"><g id="tight-bounds" transform="matrix(1,0,0,1,0.2400000000000091,0.22868240939425277)"><svg viewBox="0 0 395.52 58.542635181211516" height="58.542635181211516" width="395.52"><g><svg viewBox="0 0 503.93874698073944 74.59016539788199" height="58.542635181211516" width="395.52"><g transform="matrix(1,0,0,1,0,10.308771049924356)"><svg viewBox="0 0 395.52 53.97262329803328" height="53.97262329803328" width="395.52"><g id="textblocktransform"><svg viewBox="0 0 395.52 53.97262329803328" height="53.97262329803328" width="395.52" id="textblock"><g><svg viewBox="0 0 395.52 53.97262329803328" height="53.97262329803328" width="395.52"><g transform="matrix(1,0,0,1,0,0)"><svg width="395.52" viewBox="2.15 -34.6 331.98 45.1" height="53.97262329803328" data-palette-color="#9747ff"><g class="wordmark-text-0" data-fill-palette-color="primary" id="text-0"><path d="M17.1-34.6L17.1-34.6Q23.05-34.6 27.25-32.15 31.45-29.7 31.45-26.95L31.45-26.95Q31.45-26.2 31.13-25.68 30.8-25.15 30.33-24.93 29.85-24.7 29.3-24.7L29.3-24.7Q28.4-24.7 26.6-25.63 24.8-26.55 22.6-27.48 20.4-28.4 18.55-28.4L18.55-28.4Q15.6-28.4 15.6-26L15.6-26Q15.6-25.25 16.07-24.58 16.55-23.9 17.6-23.18 18.65-22.45 19.65-21.9 20.65-21.35 22.4-20.43 24.15-19.5 25.35-18.8L25.35-18.8Q29.2-16.6 30.75-14.6 32.3-12.6 32.3-10L32.3-10Q32.3 0.35 18.35 0.35L18.35 0.35Q15.6 0.35 13.03-0.2 10.45-0.75 8.53-1.65 6.6-2.55 5.13-3.65 3.65-4.75 2.9-5.9 2.15-7.05 2.15-8.05L2.15-8.05Q2.15-9.15 2.88-9.93 3.6-10.7 5-10.7L5-10.7Q6.05-10.7 10.05-9.38 14.05-8.05 16.5-8.05L16.5-8.05Q18.75-8.05 18.75-9.6L18.75-9.6Q18.75-10.05 18.57-10.43 18.4-10.8 17.98-11.18 17.55-11.55 17.03-11.88 16.5-12.2 15.58-12.7 14.65-13.2 13.73-13.7 12.8-14.2 11.3-15 9.8-15.8 8.4-16.6L8.4-16.6Q6.55-17.65 5.23-19.2 3.9-20.75 3.3-22.28 2.7-23.8 2.7-25.1L2.7-25.1Q2.7-29.3 6.45-31.95 10.2-34.6 17.1-34.6ZM53.15-11.85L53.15-11.85Q53.15-14.45 52.5-16.43 51.85-18.4 50.6-18.4L50.6-18.4Q49.75-18.4 49.1-17.4 48.45-16.4 48.15-14.95 47.85-13.5 47.85-11.85L47.85-11.85Q47.85-9.3 48.55-7.38 49.25-5.45 50.55-5.45 51.85-5.45 52.5-7.35 53.15-9.25 53.15-11.85ZM50.55 0.35L50.55 0.35Q46.65 0.35 43.52-1.05 40.4-2.45 38.52-5.25 36.65-8.05 36.65-11.8L36.65-11.8Q36.65-17.5 40.55-20.85 44.45-24.2 50.55-24.2 56.65-24.2 60.5-20.85 64.35-17.5 64.35-11.8L64.35-11.8Q64.35-6.15 60.42-2.9 56.5 0.35 50.55 0.35ZM83.2-26.3L83.2-26.3Q82.15-25.45 82.15-22.35L82.15-22.35Q85.5-22.35 86.8-21.73 88.09-21.1 88.09-19L88.09-19Q88.09-17.3 86.7-16.78 85.3-16.25 82.15-16.25L82.15-16.25 82.15-7.5Q82.15-3.25 80.82-1.63 79.5 0 76.65 0L76.65 0Q73.84 0 72.55-1.58 71.25-3.15 71.25-7.15L71.25-7.15 71.3-16.25Q67.59-16.3 67.59-19.15L67.59-19.15Q67.59-22.1 71.34-22.3L71.34-22.3Q71.4-28.75 73.22-31.48 75.05-34.2 80.25-34.2L80.25-34.2Q84.4-34.2 86.72-32.5 89.05-30.8 89.05-29.05L89.05-29.05Q89.05-28.3 88.42-27.73 87.8-27.15 86.65-27.15L86.65-27.15Q84.2-27.15 83.2-26.3ZM94.54-10.7L94.54-10.7 94.54-16.6Q93.29-16.65 92.54-17.03 91.79-17.4 91.47-18 91.14-18.6 91.14-19.5L91.14-19.5Q91.14-22.35 94.59-22.6L94.59-22.6 94.59-27.25Q94.59-29.15 97.34-30.68 100.09-32.2 102.79-32.2L102.79-32.2Q104.44-32.2 104.94-31.25 105.44-30.3 105.44-28.4L105.44-28.4 105.49-22.65 106.84-22.65Q109.59-22.65 110.62-21.93 111.64-21.2 111.64-19.3L111.64-19.3Q111.64-18.5 111.34-17.95 111.04-17.4 110.37-17.1 109.69-16.8 108.74-16.68 107.79-16.55 106.39-16.55L106.39-16.55 105.49-16.55 105.49-11.05Q105.49-10.25 105.57-9.73 105.64-9.2 105.79-8.9 105.94-8.6 106.22-8.5 106.49-8.4 106.89-8.4L106.89-8.4Q107.49-8.4 107.89-8.83 108.29-9.25 108.52-9.78 108.74-10.3 109.12-10.73 109.49-11.15 109.99-11.15L109.99-11.15Q111.14-11.15 111.77-10.6 112.39-10.05 112.39-9.25L112.39-9.25Q112.39-7.9 111.87-6.35 111.34-4.8 110.34-3.35 109.34-1.9 107.57-0.95 105.79 0 103.59 0L103.59 0Q98.64 0 96.59-2.5 94.54-5 94.54-10.7ZM142.99-14.1L142.99-14.1Q142.99-5.55 142.49-2.15L142.49-2.15Q142.09 0.9 141.24 3.13 140.39 5.35 138.84 7.08 137.29 8.8 134.89 9.65 132.49 10.5 129.19 10.5L129.19 10.5Q126.54 10.5 124.27 9.73 121.99 8.95 120.67 7.83 119.34 6.7 118.59 5.6 117.84 4.5 117.84 3.7 117.84 2.9 118.37 2.23 118.89 1.55 119.79 1.55L119.79 1.55Q120.44 1.55 121.32 1.95 122.19 2.35 122.99 2.85 123.79 3.35 124.89 3.75 125.99 4.15 127.04 4.15L127.04 4.15Q129.74 4.15 130.87 2.8 131.99 1.45 131.99-1.05L131.99-1.05Q131.14-0.7 130.34-0.45 129.54-0.2 128.79-0.05 128.04 0.1 127.37 0.15 126.69 0.2 126.04 0.2L126.04 0.2Q123.09 0.2 120.99-1.45 118.89-3.1 117.97-5.53 117.04-7.95 117.04-10.75L117.04-10.75Q117.04-13.55 117.12-15.5 117.19-17.45 117.44-18.98 117.69-20.5 118.02-21.4 118.34-22.3 118.94-22.88 119.54-23.45 120.29-23.65 121.04-23.85 122.09-23.85L122.09-23.85Q125.24-23.85 126.52-22.78 127.79-21.7 127.79-19.4L127.79-19.4 127.84-11.35Q127.84-10.55 127.84-10.18 127.84-9.8 127.92-9.25 127.99-8.7 128.12-8.45 128.24-8.2 128.47-7.93 128.69-7.65 129.06-7.55 129.44-7.45 129.99-7.45L129.99-7.45Q131.49-7.45 131.87-8.28 132.24-9.1 132.24-11.3L132.24-11.3 132.29-19.4Q132.29-20.95 132.81-21.9 133.34-22.85 134.59-23.35 135.84-23.85 137.99-23.85L137.99-23.85Q139.29-23.85 140.22-23.43 141.14-23 141.69-22.33 142.24-21.65 142.52-20.33 142.79-19 142.89-17.65 142.99-16.3 142.99-14.1ZM168.79-24.85L168.79-24.85Q168.79-25.9 167.91-26.65 167.04-27.4 165.84-27.4L165.84-27.4Q163.44-27.4 161.89-24.68 160.34-21.95 160.34-18.5L160.34-18.5Q160.34-15.85 161.34-13.73 162.34-11.6 164.24-10.35 166.14-9.1 168.64-9.1L168.64-9.1Q170.49-9.1 172.19-9.83 173.89-10.55 174.94-11.43 175.99-12.3 177.11-13.03 178.24-13.75 179.09-13.75L179.09-13.75Q180.19-13.75 180.99-12.88 181.79-12 181.79-11.05L181.79-11.05Q181.79-10 181.16-8.6 180.54-7.2 179.19-5.63 177.84-4.05 176.04-2.73 174.24-1.4 171.56-0.53 168.89 0.35 165.94 0.35L165.94 0.35Q162.04 0.35 158.71-0.83 155.39-2 152.94-4.17 150.49-6.35 149.09-9.65 147.69-12.95 147.69-17.05L147.69-17.05Q147.69-25.15 152.54-29.85 157.39-34.55 165.24-34.55L165.24-34.55Q169.24-34.55 172.64-33.2 176.04-31.85 178.04-29.45 180.04-27.05 180.04-24.2L180.04-24.2Q180.04-20.9 177.84-18.23 175.64-15.55 172.14-15.55L172.14-15.55Q170.14-15.55 168.54-16.65 166.94-17.75 166.94-19.8L166.94-19.8Q166.94-20.75 167.86-22.45 168.79-24.15 168.79-24.85ZM186.44-30.8L186.44-30.8Q186.44-32.45 187.86-33.52 189.29-34.6 191.89-34.6L191.89-34.6Q197.34-34.6 197.34-30.8L197.34-30.8Q197.34-28.7 195.96-27.85 194.59-27 191.89-27L191.89-27Q189.54-27 187.99-27.9 186.44-28.8 186.44-30.8ZM197.29-18.35L197.29-5.35Q197.29-2.35 196.04-1.18 194.79 0 191.64 0L191.64 0Q188.69 0 187.61-1.38 186.54-2.75 186.54-5.9L186.54-5.9 186.54-18.2Q186.54-20.75 187.91-22.3 189.29-23.85 191.59-23.85L191.59-23.85Q194.29-23.85 195.79-22.68 197.29-21.5 197.29-18.35L197.29-18.35ZM217.23-4.15L217.18-13.45Q217.18-16.25 214.98-16.25L214.98-16.25Q213.93-16.25 213.26-15.38 212.58-14.5 212.48-13.05L212.48-13.05 212.48-5.35Q212.48-2.3 211.23-1.15 209.98 0 206.83 0L206.83 0Q203.88 0 202.81-1.38 201.73-2.75 201.73-5.9L201.73-5.9 201.73-18.2Q201.73-20.75 203.11-22.3 204.48-23.85 206.78-23.85L206.78-23.85Q208.68-23.85 209.98-23.3 211.28-22.75 211.93-21.4L211.93-21.4Q215.83-23.95 221.43-23.95L221.43-23.95Q224.98-23.95 226.56-21.15 228.13-18.35 228.13-11.95L228.13-11.95Q228.13-8.8 227.98-6.83 227.83-4.85 227.51-3.43 227.18-2 226.48-1.3 225.78-0.6 224.86-0.3 223.93 0 222.48 0L222.48 0Q219.68 0 218.46-1.05 217.23-2.1 217.23-4.15L217.23-4.15ZM246.38 0.3L246.38 0.3Q240.28 0.3 236.31-2.85 232.33-6 232.33-11.45L232.33-11.45Q232.33-17.35 236.26-20.78 240.18-24.2 246.38-24.2L246.38-24.2Q252.23-24.2 254.96-22.13 257.68-20.05 257.68-16.45L257.68-16.45Q257.68-15.75 257.51-15.1 257.33-14.45 256.96-13.83 256.58-13.2 255.96-12.68 255.33-12.15 254.53-11.73 253.73-11.3 252.63-11.08 251.53-10.85 250.28-10.85L250.28-10.85 243.23-10.8Q243.73-9.2 245.03-8.28 246.33-7.35 248.33-7.35L248.33-7.35Q250.48-7.35 252.73-7.9L252.73-7.9Q253.68-8.15 254.81-8.7 255.93-9.25 256.43-9.25L256.43-9.25Q257.28-9.25 257.76-8.75 258.23-8.25 258.23-7.5L258.23-7.5Q258.23-6.6 257.43-5.33 256.63-4.05 255.21-2.78 253.78-1.5 251.43-0.6 249.08 0.3 246.38 0.3ZM242.98-14L242.98-14Q246.43-14.05 246.73-14.05L246.73-14.05Q247.48-14.05 247.83-14.95L247.83-14.95Q248.08-15.6 248.08-16.75L248.08-16.75Q248.08-19.9 246.18-19.9L246.18-19.9Q245.48-19.9 244.81-19.15 244.13-18.4 243.63-17.03 243.13-15.65 242.98-14ZM292.03-4.15L292.03-13.2Q292.03-16 289.78-16L289.78-16Q288.78-16 288.28-14.85 287.78-13.7 287.78-11.95L287.78-11.95Q287.78-9.3 287.7-7.55 287.63-5.8 287.38-4.4 287.13-3 286.78-2.2 286.43-1.4 285.83-0.88 285.23-0.35 284.48-0.18 283.73 0 282.58 0L282.58 0Q280.83 0 279.75-0.5 278.68-1 278.23-1.9 277.78-2.8 277.78-4.15L277.78-4.15 277.78-13.2Q277.78-16 275.53-16L275.53-16Q274.63-16 274.05-14.98 273.48-13.95 273.48-12.3L273.48-12.3 273.48-5.35Q273.48-2.35 272.23-1.18 270.98 0 267.83 0L267.83 0Q264.88 0 263.8-1.38 262.73-2.75 262.73-5.9L262.73-5.9 262.73-18.2Q262.73-20.75 264.1-22.3 265.48-23.85 267.78-23.85L267.78-23.85Q271.88-23.85 272.98-21.2L272.98-21.2Q274.88-22.6 276.7-23.15 278.53-23.7 280.98-23.7L280.98-23.7Q284.68-23.7 286.33-20.5L286.33-20.5Q286.58-20.7 286.83-20.9L286.83-20.9Q290.68-23.7 296.28-23.7L296.28-23.7Q299.83-23.7 301.38-21 302.93-18.3 302.93-11.95L302.93-11.95Q302.93-9.3 302.85-7.55 302.78-5.8 302.53-4.4 302.28-3 301.9-2.2 301.53-1.4 300.85-0.88 300.18-0.35 299.35-0.18 298.53 0 297.28 0L297.28 0Q295.38 0 294.2-0.5 293.03-1 292.53-1.9 292.03-2.8 292.03-4.15L292.03-4.15ZM316.58 0.3L316.58 0.3Q312.63 0.3 310.03-2.93 307.43-6.15 307.43-11.75L307.43-11.75Q307.43-17.45 310-20.83 312.58-24.2 316.58-24.2L316.58-24.2Q320.63-24.2 324.08-21.35L324.08-21.35Q325.43-23.85 328.43-23.85L328.43-23.85Q331.13-23.85 332.63-22.68 334.13-21.5 334.13-18.35L334.13-18.35 334.13-5.35Q334.13-2.35 332.88-1.18 331.63 0 328.48 0L328.48 0Q325.18 0 324.13-1.85L324.13-1.85Q320.93 0.3 316.58 0.3ZM323.38-7.2L323.38-16.55Q322.53-18 321.18-18L321.18-18Q319.88-18 319.08-16.1 318.28-14.2 318.28-11.75L318.28-11.75Q318.28-9.45 319.03-7.65 319.78-5.85 321.13-5.85L321.13-5.85Q322.53-5.85 323.38-7.2L323.38-7.2Z" fill="#9747ff" data-fill-palette-color="primary"></path></g></svg></g></svg></g></svg></g></svg></g><g transform="matrix(1,0,0,1,408.2616410177065,0)"><svg viewBox="0 0 95.67710596303296 74.59016539788199" height="74.59016539788199" width="95.67710596303296"><g><svg xmlns="http://www.w3.org/2000/svg" xmlns:xlink="http://www.w3.org/1999/xlink" version="1.1" x="8" y="0" viewBox="5 7.872999999999999 90 84.254" enable-background="new 0 0 100 100" xml:space="preserve" height="74.59016539788199" width="79.67710596303296" class="icon-icon-0" data-fill-palette-color="accent" id="icon-0"><g fill="#9747ff" data-fill-palette-color="accent"><path fill="#9747ff" d="M60.532 7.873c-8.872 0-16.168 6.702-17.122 15.319h-4.058c-0.954-8.617-8.247-15.319-17.118-15.319C12.712 7.873 5 15.588 5 25.106c0 9.518 7.712 17.234 17.234 17.234 8.198 0 15.046-5.733 16.792-13.404h4.709c1.747 7.671 8.595 13.404 16.797 13.404 9.518 0 17.233-7.716 17.233-17.234C77.766 15.588 70.05 7.873 60.532 7.873" data-fill-palette-color="accent"></path><path fill="#9747ff" d="M91.17 40.425c-2.116 0-3.829 1.717-3.829 3.83v2.461l-10.103 2.887c-0.822 0.234-1.388 0.987-1.388 1.84v8.6c0 0.856 0.565 1.606 1.388 1.842l10.103 2.887v2.461c0 2.113 1.713 3.83 3.829 3.83 2.113 0 3.83-1.717 3.83-3.83V44.255C95 42.142 93.283 40.425 91.17 40.425" data-fill-palette-color="accent"></path><path fill="#9747ff" d="M41.383 37.837c-4.144 6.279-11.22 10.248-19.148 10.248-4.189 0-8.104-1.145-11.489-3.108v18.427c0 2.115 1.713 3.83 3.829 3.83h15.548L10.745 86.697v5.43h5.396l24.793-24.894h0.976l24.789 24.894h5.322v-5.513L52.719 67.234h15.473c2.113 0 3.83-1.715 3.83-3.83V44.977c-3.389 1.963-7.305 3.108-11.489 3.108C52.6 48.085 45.523 44.117 41.383 37.837" data-fill-palette-color="accent"></path></g></svg></g></svg></g></svg></g><defs></defs></svg><rect width="395.52" height="58.542635181211516" fill="none" stroke="none" visibility="hidden"></rect></g></svg></g></svg>