<svg xmlns="http://www.w3.org/2000/svg" version="1.1" xmlns:xlink="http://www.w3.org/1999/xlink" xmlns:svgjs="http://svgjs.dev/svgjs" width="2000" height="308" viewBox="0 0 2000 308"><g transform="matrix(1,0,0,1,-1.2121212121212466,-0.8494639794062664)"><svg viewBox="0 0 396 61" data-background-color="#ffffff" preserveAspectRatio="xMidYMid meet" height="308" width="2000" xmlns="http://www.w3.org/2000/svg" xmlns:xlink="http://www.w3.org/1999/xlink"><g id="tight-bounds" transform="matrix(1,0,0,1,0.2400000000000091,0.16823799592137334)"><svg viewBox="0 0 395.52 60.66352400815727" height="60.66352400815727" width="395.52"><g><svg viewBox="0 0 508.07246093917297 77.92644096902069" height="60.66352400815727" width="395.52"><g transform="matrix(1,0,0,1,0,10.769862680957274)"><svg viewBox="0 0 395.52 56.38671560710614" height="56.38671560710614" width="395.52"><g id="textblocktransform"><svg viewBox="0 0 395.52 56.38671560710614" height="56.38671560710614" width="395.52" id="textblock"><g><svg viewBox="0 0 395.52 56.38671560710614" height="56.38671560710614" width="395.52"><g transform="matrix(1,0,0,1,0,0)"><svg width="395.52" viewBox="3.5 -36.65 340.53 48.55" height="56.38671560710614" data-palette-color="#9747ff"><path d="M19.65-20.05Q26.25-18.2 29.78-15.63 33.3-13.05 33.3-8.8L33.3-8.8Q33.3-5.9 31.8-3.78 30.3-1.65 27.63-0.5 24.95 0.65 21.6 0.65L21.6 0.65Q15.2 0.65 9.3-4.6L9.3-4.6 9.3-0.05 3.5-0.05 3.5-12.05 7.45-12.3Q10.1-8.8 13.93-6.7 17.75-4.6 21.2-4.6L21.2-4.6Q23.5-4.6 24.95-5.53 26.4-6.45 26.4-8.15L26.4-8.15Q26.4-10.05 23.9-11.5 21.4-12.95 15.4-14.55L15.4-14.55Q9.3-16.2 6.48-18.88 3.65-21.55 3.65-25.55L3.65-25.55Q3.65-28.35 5.23-30.5 6.8-32.65 9.38-33.83 11.95-35 14.95-35L14.95-35Q21.55-35 25.7-30.55L25.7-30.55 25.7-34.3 31.5-34.3 31.5-22.55 27.75-22.35Q25.9-25.95 22.9-27.85 19.9-29.75 16.55-29.75L16.55-29.75Q13.9-29.75 12.23-28.7 10.55-27.65 10.55-25.85L10.55-25.85Q10.55-24 12.63-22.7 14.7-21.4 19.65-20.05L19.65-20.05ZM50.3 0.7Q46.8 0.7 43.75-0.85 40.7-2.4 38.85-5.25 37-8.1 37-11.75L37-11.75Q37-15.4 38.85-18.25 40.7-21.1 43.75-22.65 46.8-24.2 50.3-24.2L50.3-24.2Q53.7-24.2 56.77-22.65 59.85-21.1 61.72-18.25 63.6-15.4 63.6-11.75L63.6-11.75Q63.6-8.1 61.77-5.25 59.95-2.4 56.9-0.85 53.85 0.7 50.3 0.7L50.3 0.7ZM50.35-4.25Q53.25-4.25 55.17-6.3 57.1-8.35 57.1-11.75L57.1-11.75Q57.1-15.15 55.17-17.2 53.25-19.25 50.35-19.25L50.35-19.25Q47.4-19.25 45.47-17.2 43.55-15.15 43.55-11.75L43.55-11.75Q43.55-8.35 45.47-6.3 47.4-4.25 50.35-4.25L50.35-4.25ZM82.65-31.4Q80.45-31.4 79.15-30.1 77.85-28.8 77.85-26.85L77.85-26.85 77.85-23.55 85.1-23.55 85.1-18.6 77.85-18.6 77.85-4.95 84.5-4.95 84.5 0 66.7 0 66.7-4.95 71.7-4.95 71.7-18.6 66.7-18.6 66.7-23.55 71.7-23.55 71.7-26.7Q71.7-31.3 74.5-33.98 77.3-36.65 81.9-36.65L81.9-36.65Q84.2-36.65 86.15-36.1 88.1-35.55 90.4-34.5L90.4-34.5 88.2-29.7Q86.8-30.55 85.5-30.98 84.2-31.4 82.65-31.4L82.65-31.4ZM107.14-6.45L109.29-1.8Q107.49-0.65 105.59 0 103.69 0.65 101.29 0.65L101.29 0.65Q97.09 0.65 94.67-2 92.24-4.65 92.24-9.35L92.24-9.35 92.24-18.6 87.29-18.6 87.29-23.55 92.24-23.55 92.24-30.1 98.49-30.1 98.49-23.55 105.69-23.55 105.69-18.6 98.49-18.6 98.49-9.3Q98.49-7.1 99.49-5.98 100.49-4.85 102.34-4.85L102.34-4.85Q103.59-4.85 104.69-5.25 105.79-5.65 107.14-6.45L107.14-6.45ZM139.29-23.55L139.29-18.6 136.14-18.6 126.74 1.95Q124.39 7.05 121.62 9.47 118.84 11.9 115.09 11.9L115.09 11.9Q113.04 11.9 111.44 11.28 109.84 10.65 107.89 9.45L107.89 9.45 110.34 4.7Q111.54 5.45 112.67 5.93 113.79 6.4 115.09 6.4L115.09 6.4Q117.24 6.4 118.87 5.1 120.49 3.8 121.84 0.8L121.84 0.8 121.89 0.65 112.04-18.6 108.64-18.6 108.64-23.55 122.29-23.55 122.29-19.1 118.64-19.1 124.74-5.75 130.59-19.1 127.14-19.1 127.14-23.55 139.29-23.55ZM171.79-11.25L176.09-7.75Q173.44-3.85 169.51-1.6 165.59 0.65 160.39 0.65L160.39 0.65Q155.34 0.65 151.16-1.65 146.99-3.95 144.56-8 142.14-12.05 142.14-17.05L142.14-17.05Q142.14-22.25 144.44-26.35 146.74-30.45 150.61-32.73 154.49-35 158.99-35L158.99-35Q165.44-35 169.44-30.7L169.44-30.7 169.44-34.3 175.39-34.3 175.39-22.75 171.09-22.35Q169.54-25.75 166.79-27.75 164.04-29.75 159.99-29.75L159.99-29.75Q157.14-29.75 154.61-28.23 152.09-26.7 150.56-23.83 149.04-20.95 149.04-17.15L149.04-17.15Q149.04-13.65 150.54-10.83 152.04-8 154.64-6.38 157.24-4.75 160.39-4.75L160.39-4.75Q164.29-4.75 166.96-6.43 169.64-8.1 171.79-11.25L171.79-11.25ZM186.94-28Q185.09-28 183.84-29 182.59-30 182.59-31.45L182.59-31.45Q182.59-33 183.84-34 185.09-35 186.94-35L186.94-35Q188.89-35 190.11-34 191.34-33 191.34-31.45L191.34-31.45Q191.34-29.95 190.11-28.98 188.89-28 186.94-28L186.94-28ZM190.54-4.95L195.59-4.95 195.59 0 179.29 0 179.29-4.95 184.29-4.95 184.29-18.6 179.29-18.6 179.29-23.55 190.54-23.55 190.54-4.95ZM227.98-4.95L232.28-4.95 232.28 0 217.63 0 217.63-4.95 221.73-4.95 221.73-13.1Q221.73-15.5 220.46-16.9 219.18-18.3 216.83-18.3L216.83-18.3Q213.03-18.3 208.63-13.3L208.63-13.3 208.63-4.95 212.68-4.95 212.68 0 197.38 0 197.38-4.95 202.38-4.95 202.38-18.6 197.38-18.6 197.38-23.55 208.63-23.55 208.63-18.15Q211.33-21.2 213.81-22.68 216.28-24.15 219.13-24.15L219.13-24.15Q223.43-24.15 225.71-21.35 227.98-18.55 227.98-13.15L227.98-13.15 227.98-4.95ZM256.58-7.7L259.18-3.6Q254.18 0.7 247.63 0.7L247.63 0.7Q244.13 0.7 241.06-0.7 237.98-2.1 236.08-4.8 234.18-7.5 234.18-11.25L234.18-11.25Q234.18-15.15 236.08-18.07 237.98-21 241.13-22.6 244.28-24.2 247.83-24.2L247.83-24.2Q250.93-24.2 253.36-23.25 255.78-22.3 257.16-20.58 258.53-18.85 258.53-16.6L258.53-16.6Q258.53-14.35 257.16-12.73 255.78-11.1 253.56-10.3 251.33-9.5 248.78-9.5L248.78-9.5Q246.38-9.5 244.36-10 242.33-10.5 240.18-11.4L240.18-11.4Q240.23-8.2 242.43-6.38 244.63-4.55 247.88-4.55L247.88-4.55Q252.83-4.6 256.58-7.7L256.58-7.7ZM248.28-19.3Q246.03-19.3 244.01-18.07 241.98-16.85 240.93-14.8L240.93-14.8Q244.03-13.7 247.28-13.7L247.28-13.7Q249.53-13.75 250.91-14.5 252.28-15.25 252.28-16.6L252.28-16.6Q252.28-17.8 251.18-18.55 250.08-19.3 248.28-19.3L248.28-19.3ZM309.28-4.95L313.63-4.95 313.63 0 299.08 0 299.08-4.95 303.03-4.95 303.03-13.4Q303.03-15.6 301.95-16.95 300.88-18.3 298.88-18.3L298.88-18.3Q295.13-18.3 291.43-13.8L291.43-13.8 291.43-13.5 291.43-4.95 295.38-4.95 295.38 0 281.08 0 281.08-4.95 285.18-4.95 285.18-13.4Q285.18-15.6 284.08-16.95 282.98-18.3 280.93-18.3L280.93-18.3Q279.08-18.3 277.15-17.13 275.23-15.95 273.38-13.65L273.38-13.65 273.38-4.95 277.43-4.95 277.43 0 262.13 0 262.13-4.95 267.13-4.95 267.13-18.6 262.13-18.6 262.13-23.55 273.38-23.55 273.38-18.7Q275.48-21.35 277.98-22.75 280.48-24.15 283.23-24.15L283.23-24.15Q286.08-24.15 288.05-22.6 290.03-21.05 290.88-18.1L290.88-18.1Q293.03-21 295.63-22.58 298.23-24.15 301.13-24.15L301.13-24.15Q304.93-24.15 307.1-21.4 309.28-18.65 309.28-13.5L309.28-13.5 309.28-4.95ZM342.78-5.1L344.03-0.65Q343.33-0.2 342.18 0.1 341.03 0.4 339.63 0.4L339.63 0.4Q337.73 0.4 336.3-0.68 334.88-1.75 334.33-3.7L334.33-3.7Q329.38 0.7 324.53 0.7L324.53 0.7Q321.08 0.7 318.73-1.23 316.38-3.15 316.38-6.75L316.38-6.75Q316.38-9.25 317.78-11.05 319.18-12.85 321.45-13.78 323.73-14.7 326.28-14.7L326.28-14.7Q328.48-14.7 330.28-14.28 332.08-13.85 333.98-13.05L333.98-13.05 333.98-14.9Q333.98-16.9 332.35-17.9 330.73-18.9 328.18-18.9L328.18-18.9Q324.43-18.9 319.08-16.85L319.08-16.85 317.83-21.6Q323.88-24.15 329.03-24.15L329.03-24.15Q334.28-24.15 337.1-21.63 339.93-19.1 339.93-14.65L339.93-14.65 339.93-6.75Q339.93-4.8 341.38-4.8L341.38-4.8Q342.08-4.8 342.78-5.1L342.78-5.1ZM322.58-7.1Q322.58-5.8 323.63-5.13 324.68-4.45 326.23-4.45L326.23-4.45Q327.68-4.45 329.73-5.25 331.78-6.05 333.98-7.7L333.98-7.7 333.98-9.05Q330.93-10.2 327.48-10.2L327.48-10.2Q325.43-10.15 324-9.38 322.58-8.6 322.58-7.1L322.58-7.1Z" opacity="1" transform="matrix(1,0,0,1,0,0)" fill="#9747ff" class="wordmark-text-0" data-fill-palette-color="primary" id="text-0"></path></svg></g></svg></g></svg></g></svg></g><g transform="matrix(1,0,0,1,408.8315502736632,0)"><svg viewBox="0 0 99.24091066550979 77.92644096902069" height="77.92644096902069" width="99.24091066550979"><g><svg xmlns="http://www.w3.org/2000/svg" xmlns:xlink="http://www.w3.org/1999/xlink" version="1.1" x="8" y="0" viewBox="5 7.872999999999999 90 84.254" enable-background="new 0 0 100 100" xml:space="preserve" height="77.92644096902069" width="83.24091066550979" class="icon-icon-0" data-fill-palette-color="accent" id="icon-0"><g fill="#9747ff" data-fill-palette-color="accent"><path fill="#9747ff" d="M60.532 7.873c-8.872 0-16.168 6.702-17.122 15.319h-4.058c-0.954-8.617-8.247-15.319-17.118-15.319C12.712 7.873 5 15.588 5 25.106c0 9.518 7.712 17.234 17.234 17.234 8.198 0 15.046-5.733 16.792-13.404h4.709c1.747 7.671 8.595 13.404 16.797 13.404 9.518 0 17.233-7.716 17.233-17.234C77.766 15.588 70.05 7.873 60.532 7.873" data-fill-palette-color="accent"></path><path fill="#9747ff" d="M91.17 40.425c-2.116 0-3.829 1.717-3.829 3.83v2.461l-10.103 2.887c-0.822 0.234-1.388 0.987-1.388 1.84v8.6c0 0.856 0.565 1.606 1.388 1.842l10.103 2.887v2.461c0 2.113 1.713 3.83 3.829 3.83 2.113 0 3.83-1.717 3.83-3.83V44.255C95 42.142 93.283 40.425 91.17 40.425" data-fill-palette-color="accent"></path><path fill="#9747ff" d="M41.383 37.837c-4.144 6.279-11.22 10.248-19.148 10.248-4.189 0-8.104-1.145-11.489-3.108v18.427c0 2.115 1.713 3.83 3.829 3.83h15.548L10.745 86.697v5.43h5.396l24.793-24.894h0.976l24.789 24.894h5.322v-5.513L52.719 67.234h15.473c2.113 0 3.83-1.715 3.83-3.83V44.977c-3.389 1.963-7.305 3.108-11.489 3.108C52.6 48.085 45.523 44.117 41.383 37.837" data-fill-palette-color="accent"></path></g></svg></g></svg></g></svg></g><defs></defs></svg><rect width="395.52" height="60.66352400815727" fill="none" stroke="none" visibility="hidden"></rect></g></svg></g></svg>