<svg xmlns="http://www.w3.org/2000/svg" width="46" height="46" viewBox="0 0 46 46" fill="none">
<g filter="url(#filter0_d_615_494)">
<path d="M30.278 22.3141L27.0587 25.1236L28.0231 29.3065C28.0741 29.5252 28.0595 29.7541 27.9812 29.9645C27.9029 30.1749 27.7642 30.3576 27.5827 30.4897C27.4011 30.6218 27.1846 30.6974 26.9602 30.7071C26.7359 30.7168 26.5137 30.6602 26.3214 30.5443L22.6731 28.3315L19.0327 30.5443C18.8404 30.6602 18.6181 30.7168 18.3938 30.7071C18.1695 30.6974 17.953 30.6218 17.7714 30.4897C17.5898 30.3576 17.4512 30.1749 17.3728 29.9645C17.2945 29.7541 17.2799 29.5252 17.331 29.3065L18.2939 25.1279L15.0739 22.3141C14.9036 22.1672 14.7805 21.9733 14.7199 21.7567C14.6594 21.5401 14.6641 21.3105 14.7335 21.0966C14.803 20.8827 14.9341 20.694 15.1103 20.5543C15.2865 20.4146 15.5001 20.33 15.7242 20.3112L19.9685 19.9435L21.6252 15.9919C21.7117 15.7846 21.8577 15.6074 22.0446 15.4829C22.2316 15.3583 22.4513 15.2918 22.676 15.2918C22.9006 15.2918 23.1203 15.3583 23.3073 15.4829C23.4942 15.6074 23.6402 15.7846 23.7267 15.9919L25.3884 19.9435L29.6313 20.3112C29.8554 20.33 30.0689 20.4146 30.2452 20.5543C30.4214 20.694 30.5525 20.8827 30.6219 21.0966C30.6914 21.3105 30.6961 21.5401 30.6356 21.7567C30.575 21.9733 30.4519 22.1672 30.2816 22.3141H30.278Z" fill="#FEEA35"/>
</g>
<defs>
<filter id="filter0_d_615_494" x="0.269955" y="0.884029" width="44.8156" height="44.2319" filterUnits="userSpaceOnUse" color-interpolation-filters="sRGB">
<feFlood flood-opacity="0" result="BackgroundImageFix"/>
<feColorMatrix in="SourceAlpha" type="matrix" values="0 0 0 0 0 0 0 0 0 0 0 0 0 0 0 0 0 0 127 0" result="hardAlpha"/>
<feOffset/>
<feGaussianBlur stdDeviation="7.20389"/>
<feComposite in2="hardAlpha" operator="out"/>
<feColorMatrix type="matrix" values="0 0 0 0 0.996078 0 0 0 0 0.917647 0 0 0 0 0.207843 0 0 0 0.25 0"/>
<feBlend mode="normal" in2="BackgroundImageFix" result="effect1_dropShadow_615_494"/>
<feBlend mode="normal" in="SourceGraphic" in2="effect1_dropShadow_615_494" result="shape"/>
</filter>
</defs>
</svg>